<svg width="121" height="121" viewBox="0 0 121 121" fill="none" xmlns="http://www.w3.org/2000/svg">
<mask id="mask0_2003_5" style="mask-type:alpha" maskUnits="userSpaceOnUse" x="0" y="0" width="121" height="121">
<rect width="121" height="121" fill="#D9D9D9"/>
</mask>
<g mask="url(#mask0_2003_5)">
<path d="M81.1713 44.1617C72.7967 44.1617 64.272 43.8215 56.2976 41.6002C48.4733 39.4291 41.2893 35.2167 34.8858 30.344C30.6935 27.1723 26.8814 24.6409 21.4384 25.0211C16.1135 25.3093 11.0214 27.2977 6.91036 30.6942C-0.0134538 36.7576 1.02712 47.9938 3.79865 55.8581C7.96094 67.7347 20.6279 76.0092 31.3939 81.3622C43.8307 87.5756 57.4982 91.1876 71.1958 93.2587C83.2024 95.0897 98.6309 96.4105 109.037 88.5761C118.592 81.3622 121.213 64.9131 118.872 53.807C118.304 50.526 116.557 47.5656 113.959 45.4824C107.246 40.5697 97.2301 43.8515 89.686 44.0116C86.8844 44.0716 84.0329 44.1416 81.1713 44.1617Z" fill="#F2F2F2"/>
<path d="M61.0803 112.729C81.3659 112.729 97.8106 111.704 97.8106 110.438C97.8106 109.173 81.3659 108.147 61.0803 108.147C40.7948 108.147 24.3501 109.173 24.3501 110.438C24.3501 111.704 40.7948 112.729 61.0803 112.729Z" fill="#F2F2F2"/>
<path d="M9.25171 22.0995L22.2589 20.9989C23.8809 20.8568 25.5024 21.2763 26.8521 22.187C28.2017 23.0977 29.1976 24.4444 29.673 26.0016L42.1398 67.7246L39.6985 72.097C39.0714 73.2236 38.7619 74.4993 38.8028 75.7879C38.8438 77.0766 39.2337 78.3301 39.931 79.4146C40.6284 80.4991 41.6069 81.374 42.7624 81.946C43.9179 82.5181 45.207 82.7658 46.4922 82.6628L96.4197 78.4205" stroke="#BABABA" stroke-width="1.00055" stroke-linecap="round" stroke-linejoin="round"/>
<path d="M31.5339 32.3351L89.5659 27.4124C90.1376 27.3634 90.713 27.4438 91.2493 27.6475C91.7857 27.8512 92.2693 28.1731 92.6643 28.5892C93.0593 29.0054 93.3556 29.5051 93.5311 30.0514C93.7066 30.5977 93.7569 31.1764 93.6782 31.7448L89.746 60.1304C89.6266 60.9821 89.2242 61.7688 88.6035 62.3641C87.9829 62.9593 87.18 63.3285 86.3241 63.4122L42.1398 67.7246L31.5339 32.3351Z" fill="white" stroke="#BABABA" stroke-width="1.00055" stroke-linecap="round" stroke-linejoin="round"/>
<path d="M52.0454 92.2281C54.6481 92.2281 56.758 90.1182 56.758 87.5155C56.758 84.9128 54.6481 82.8029 52.0454 82.8029C49.4427 82.8029 47.3328 84.9128 47.3328 87.5155C47.3328 90.1182 49.4427 92.2281 52.0454 92.2281Z" fill="white" stroke="#BABABA" stroke-width="1.00055" stroke-linecap="round" stroke-linejoin="round"/>
<path d="M84.8632 89.4466C87.4659 89.4466 89.5758 87.3367 89.5758 84.734C89.5758 82.1313 87.4659 80.0214 84.8632 80.0214C82.2605 80.0214 80.1506 82.1313 80.1506 84.734C80.1506 87.3367 82.2605 89.4466 84.8632 89.4466Z" fill="white" stroke="#BABABA" stroke-width="1.00055" stroke-linecap="round" stroke-linejoin="round"/>
<path d="M19.5519 19.8722L7.28914 20.9128C6.22646 21.0029 5.43809 21.9375 5.52826 23.0002C5.61843 24.0628 6.55299 24.8512 7.61567 24.7611L19.8784 23.7205C20.9411 23.6304 21.7294 22.6958 21.6393 21.6331C21.5491 20.5705 20.6145 19.7821 19.5519 19.8722Z" fill="#D2D2D2"/>
<path d="M71.4093 46.6691C71.3035 48.5078 70.5724 50.255 69.3372 51.6211C68.102 52.9871 66.4369 53.8898 64.6182 54.1795C62.7994 54.4691 60.9363 54.1284 59.3378 53.2137C57.7394 52.2989 56.5016 50.8653 55.8299 49.1505" stroke="#BABABA" stroke-width="1.00055" stroke-linecap="round" stroke-linejoin="round"/>
<path d="M71.8162 43.4613C72.4351 43.4613 72.9368 42.9595 72.9368 42.3406C72.9368 41.7217 72.4351 41.22 71.8162 41.22C71.1973 41.22 70.6956 41.7217 70.6956 42.3406C70.6956 42.9595 71.1973 43.4613 71.8162 43.4613Z" fill="#BABABA"/>
<path d="M54.0564 44.9621C54.6753 44.9621 55.177 44.4604 55.177 43.8415C55.177 43.2226 54.6753 42.7209 54.0564 42.7209C53.4375 42.7209 52.9358 43.2226 52.9358 43.8415C52.9358 44.4604 53.4375 44.9621 54.0564 44.9621Z" fill="#BABABA"/>
<path d="M22.489 86.1248V90.4371" stroke="#BABABA" stroke-width="1.00055" stroke-linecap="round" stroke-linejoin="round"/>
<path d="M20.3379 88.2759H24.6403" stroke="#BABABA" stroke-width="1.00055" stroke-linecap="round" stroke-linejoin="round"/>
<path d="M91.2368 5.96057V10.2629" stroke="#BABABA" stroke-width="1.00055" stroke-linecap="round" stroke-linejoin="round"/>
<path d="M89.0857 8.11179H93.3881" stroke="#BABABA" stroke-width="1.00055" stroke-linecap="round" stroke-linejoin="round"/>
<path d="M40.2988 18.8177V23.12" stroke="#BABABA" stroke-width="1.00055" stroke-linecap="round" stroke-linejoin="round"/>
<path d="M38.1375 20.9688H42.4498" stroke="#BABABA" stroke-width="1.00055" stroke-linecap="round" stroke-linejoin="round"/>
<path d="M101.973 34.6364C102.536 34.6364 102.993 34.1794 102.993 33.6158C102.993 33.0522 102.536 32.5952 101.973 32.5952C101.409 32.5952 100.952 33.0522 100.952 33.6158C100.952 34.1794 101.409 34.6364 101.973 34.6364Z" fill="white" stroke="#BABABA" stroke-width="1.00055" stroke-linecap="round" stroke-linejoin="round"/>
<path d="M63.8319 25.4613C64.3734 25.4613 64.8124 25.0223 64.8124 24.4808C64.8124 23.9392 64.3734 23.5002 63.8319 23.5002C63.2903 23.5002 62.8513 23.9392 62.8513 24.4808C62.8513 25.0223 63.2903 25.4613 63.8319 25.4613Z" fill="#CFCFCF"/>
<path d="M70.4154 96.6206C70.9569 96.6206 71.3959 96.1816 71.3959 95.64C71.3959 95.0985 70.9569 94.6595 70.4154 94.6595C69.8738 94.6595 69.4348 95.0985 69.4348 95.64C69.4348 96.1816 69.8738 96.6206 70.4154 96.6206Z" fill="#CFCFCF"/>
</g>
</svg>
