<svg width="137" height="137" viewBox="0 0 137 137" fill="none" xmlns="http://www.w3.org/2000/svg">
<mask id="mask0_2003_3" style="mask-type:alpha" maskUnits="userSpaceOnUse" x="0" y="0" width="137" height="137">
<rect width="137" height="137" fill="#D9D9D9"/>
</mask>
<g mask="url(#mask0_2003_3)">
<path d="M80.1963 53.6087C71.8551 53.6584 63.3844 53.2702 55.4612 51.0705C47.538 48.8707 40.5306 44.72 34.1602 39.8725C29.9895 36.7171 26.1972 34.2088 20.7823 34.587C15.4879 34.8653 10.4238 36.8407 6.3394 40.2209C-0.548605 46.2528 0.496542 57.4011 3.24378 65.2446C7.38455 77.0597 19.986 85.2616 30.6863 90.6068C43.0588 96.7881 56.6457 100.381 70.2724 102.442C82.2169 104.253 97.5557 105.577 107.898 97.7735C117.403 90.6168 120.011 74.2528 117.682 63.2041C117.115 59.9408 115.378 56.9962 112.795 54.9226C106.116 50.0452 96.1622 53.3001 88.657 53.4693C85.9197 53.529 83.0431 53.5987 80.1963 53.6087Z" fill="#F2F2F2"/>
<path d="M39.5251 14.978V19.2581" stroke="#CFCFCF" stroke-width="0.84607" stroke-linecap="round" stroke-linejoin="round"/>
<path d="M37.3853 17.1182H41.6654" stroke="#CFCFCF" stroke-width="0.84607" stroke-linecap="round" stroke-linejoin="round"/>
<path d="M120.728 100.292V104.572" stroke="#CFCFCF" stroke-width="0.84607" stroke-linecap="round" stroke-linejoin="round"/>
<path d="M118.588 102.432H122.868" stroke="#CFCFCF" stroke-width="0.84607" stroke-linecap="round" stroke-linejoin="round"/>
<path d="M7.18543 81.8076C7.72417 81.8076 8.1609 81.3709 8.1609 80.8322C8.1609 80.2934 7.72417 79.8567 7.18543 79.8567C6.64669 79.8567 6.20996 80.2934 6.20996 80.8322C6.20996 81.3709 6.64669 81.8076 7.18543 81.8076Z" fill="#CFCFCF"/>
<path d="M90.2399 19.3975C90.7786 19.3975 91.2153 18.9607 91.2153 18.422C91.2153 17.8833 90.7786 17.4465 90.2399 17.4465C89.7011 17.4465 89.2644 17.8833 89.2644 18.422C89.2644 18.9607 89.7011 19.3975 90.2399 19.3975Z" fill="#CFCFCF"/>
<path d="M63.2051 121.792C83.3802 121.792 99.7354 120.776 99.7354 119.522C99.7354 118.269 83.3802 117.253 63.2051 117.253C43.03 117.253 26.6748 118.269 26.6748 119.522C26.6748 120.776 43.03 121.792 63.2051 121.792Z" fill="#F2F2F2"/>
<path d="M35.0661 26.6041H88.1196C89.4396 26.6041 90.7055 27.1285 91.6388 28.0618C92.5722 28.9952 93.0965 30.2611 93.0965 31.581V94.6978C93.0965 96.0178 92.5722 97.2837 91.6388 98.217C90.7055 99.1504 89.4396 99.6747 88.1196 99.6747H28.2677C26.9477 99.6747 25.6818 99.1504 24.7485 98.217C23.8151 97.2837 23.2908 96.0178 23.2908 94.6978V38.4989L35.0661 26.6041Z" fill="white" stroke="#BABABA" stroke-width="0.995376" stroke-linecap="round" stroke-linejoin="round"/>
<path d="M92.8575 57.3613H38.1516V100.282H92.8575V57.3613Z" fill="#D2D2D2"/>
<path d="M23.2908 38.4989H32.936C33.5018 38.4962 34.0436 38.2696 34.4428 37.8686C34.842 37.4675 35.0661 36.9247 35.0661 36.3588V26.6041L23.2908 38.4989Z" fill="white" stroke="#BABABA" stroke-width="0.995376" stroke-linecap="round" stroke-linejoin="round"/>
<path d="M92.5887 43.6549H38.48C36.3745 43.6549 34.6677 45.3617 34.6677 47.4672V59.0434C34.6677 61.1489 36.3745 62.8557 38.48 62.8557H92.5887C94.6941 62.8557 96.401 61.1489 96.401 59.0434V47.4672C96.401 45.3617 94.6941 43.6549 92.5887 43.6549Z" fill="white" stroke="#BABABA" stroke-width="0.995376" stroke-linecap="round" stroke-linejoin="round"/>
<path d="M45.179 56.6047C47.0152 56.6047 48.5036 55.1162 48.5036 53.2801C48.5036 51.444 47.0152 49.9556 45.179 49.9556C43.3429 49.9556 41.8545 51.444 41.8545 53.2801C41.8545 55.1162 43.3429 56.6047 45.179 56.6047Z" fill="#D2D2D2"/>
<path d="M55.6305 56.6047C57.4666 56.6047 58.955 55.1162 58.955 53.2801C58.955 51.444 57.4666 49.9556 55.6305 49.9556C53.7944 49.9556 52.3059 51.444 52.3059 53.2801C52.3059 55.1162 53.7944 56.6047 55.6305 56.6047Z" fill="#D2D2D2"/>
<path d="M66.0719 56.6047C67.908 56.6047 69.3964 55.1162 69.3964 53.2801C69.3964 51.444 67.908 49.9556 66.0719 49.9556C64.2358 49.9556 62.7473 51.444 62.7473 53.2801C62.7473 55.1162 64.2358 56.6047 66.0719 56.6047Z" fill="#D2D2D2"/>
<path d="M92.5887 64.936H38.48C36.3745 64.936 34.6677 66.6429 34.6677 68.7483V80.3246C34.6677 82.43 36.3745 84.1368 38.48 84.1368H92.5887C94.6941 84.1368 96.401 82.43 96.401 80.3246V68.7483C96.401 66.6429 94.6941 64.936 92.5887 64.936Z" fill="white" stroke="#BABABA" stroke-width="0.995376" stroke-linecap="round" stroke-linejoin="round"/>
<path d="M45.179 77.8958C47.0152 77.8958 48.5036 76.4074 48.5036 74.5713C48.5036 72.7352 47.0152 71.2467 45.179 71.2467C43.3429 71.2467 41.8545 72.7352 41.8545 74.5713C41.8545 76.4074 43.3429 77.8958 45.179 77.8958Z" fill="#D2D2D2"/>
<path d="M55.6305 77.8958C57.4666 77.8958 58.955 76.4074 58.955 74.5713C58.955 72.7352 57.4666 71.2467 55.6305 71.2467C53.7944 71.2467 52.3059 72.7352 52.3059 74.5713C52.3059 76.4074 53.7944 77.8958 55.6305 77.8958Z" fill="#D2D2D2"/>
<path d="M66.0719 77.8958C67.908 77.8958 69.3964 76.4074 69.3964 74.5713C69.3964 72.7352 67.908 71.2467 66.0719 71.2467C64.2358 71.2467 62.7473 72.7352 62.7473 74.5713C62.7473 76.4074 64.2358 77.8958 66.0719 77.8958Z" fill="#D2D2D2"/>
<path d="M92.5887 86.2272H38.48C36.3745 86.2272 34.6677 87.934 34.6677 90.0395V101.616C34.6677 103.721 36.3745 105.428 38.48 105.428H92.5887C94.6941 105.428 96.401 103.721 96.401 101.616V90.0395C96.401 87.934 94.6941 86.2272 92.5887 86.2272Z" fill="white" stroke="#BABABA" stroke-width="0.995376" stroke-linecap="round" stroke-linejoin="round"/>
<path d="M45.179 99.1769C47.0152 99.1769 48.5036 97.6885 48.5036 95.8524C48.5036 94.0163 47.0152 92.5278 45.179 92.5278C43.3429 92.5278 41.8545 94.0163 41.8545 95.8524C41.8545 97.6885 43.3429 99.1769 45.179 99.1769Z" fill="#D2D2D2"/>
<path d="M55.6305 99.1769C57.4666 99.1769 58.955 97.6885 58.955 95.8524C58.955 94.0163 57.4666 92.5278 55.6305 92.5278C53.7944 92.5278 52.3059 94.0163 52.3059 95.8524C52.3059 97.6885 53.7944 99.1769 55.6305 99.1769Z" fill="#D2D2D2"/>
<path d="M66.0719 99.1769C67.908 99.1769 69.3964 97.6885 69.3964 95.8524C69.3964 94.0163 67.908 92.5278 66.0719 92.5278C64.2358 92.5278 62.7473 94.0163 62.7473 95.8524C62.7473 97.6885 64.2358 99.1769 66.0719 99.1769Z" fill="#D2D2D2"/>
<path d="M97.486 67.9022C108.882 67.9022 118.12 58.664 118.12 47.2681C118.12 35.8721 108.882 26.6339 97.486 26.6339C86.09 26.6339 76.8518 35.8721 76.8518 47.2681C76.8518 58.664 86.09 67.9022 97.486 67.9022Z" fill="white" stroke="#BABABA" stroke-width="0.995376" stroke-linecap="round" stroke-linejoin="round"/>
<path d="M112.138 62.2385L117.632 67.733" stroke="#BABABA" stroke-width="0.995376" stroke-linecap="round" stroke-linejoin="round"/>
<path d="M117.019 65.0656L115.313 66.85C114.545 67.6526 114.574 68.9254 115.377 69.6927L130.199 83.8617C131.001 84.629 132.274 84.6004 133.041 83.7977L134.747 82.0133C135.514 81.2106 135.486 79.9379 134.683 79.1705L119.861 65.0016C119.059 64.2342 117.786 64.2629 117.019 65.0656Z" fill="white" stroke="#BABABA" stroke-width="0.995376" stroke-linecap="round" stroke-linejoin="round"/>
</g>
</svg>
