<svg width="114" height="114" viewBox="0 0 114 114" fill="none" xmlns="http://www.w3.org/2000/svg">
<path d="M57 2C64.2227 2 71.3747 3.42262 78.0476 6.18663C84.7205 8.95064 90.7837 13.0019 95.8909 18.1091C100.998 23.2164 105.049 29.2795 107.813 35.9524C110.577 42.6253 112 49.7773 112 57C112 64.2227 110.577 71.3747 107.813 78.0476C105.049 84.7205 100.998 90.7837 95.8909 95.8909C90.7836 100.998 84.7205 105.049 78.0476 107.813C71.3747 110.577 64.2227 112 57 112C49.7773 112 42.6253 110.577 35.9524 107.813C29.2795 105.049 23.2163 100.998 18.1091 95.8909C13.0019 90.7836 8.95062 84.7205 6.18662 78.0476C3.42261 71.3747 2 64.2227 2 57C2 49.7773 3.42262 42.6253 6.18664 35.9524C8.95065 29.2795 13.0019 23.2163 18.1091 18.1091C23.2164 13.0019 29.2795 8.95062 35.9524 6.18661C42.6254 3.42261 49.7773 2 57 2L57 2Z" stroke="#26A048" stroke-width="4" stroke-linecap="round" stroke-linejoin="round"/>
<path d="M33 56.2L49.8689 73L82 41" stroke="#26A048" stroke-width="4" stroke-linecap="round" stroke-linejoin="round"/>
</svg>
