<svg width="386" height="361" viewBox="0 0 386 361" fill="none" xmlns="http://www.w3.org/2000/svg">
<mask id="mask0_23_46" style="mask-type:alpha" maskUnits="userSpaceOnUse" x="0" y="0" width="386" height="361">
<rect width="386" height="361" fill="#D9D9D9"/>
</mask>
<g mask="url(#mask0_23_46)">
<circle cx="79.5" cy="283.5" r="59.5" stroke="black" stroke-width="34"/>
<circle cx="308.5" cy="283.5" r="59.5" stroke="black" stroke-width="34"/>
<rect x="10.4094" y="112.704" width="111" height="111" rx="22.5" transform="rotate(-61.2261 10.4094 112.704)" stroke="black" stroke-width="35"/>
<path d="M196.844 83.8921C192.281 85.5796 183.944 96.4679 179.796 106.245C178.359 109.37 175.555 114.652 173.442 117.96C171.329 121.269 167.405 128.279 164.729 133.415C156.081 149.828 147.151 166.122 144.792 169.861C140.301 176.634 135.92 189.041 136.266 194.108C136.513 199.732 140.221 205.67 148.828 214.851C164.258 231.27 174.884 257.924 174.92 280.623C174.925 294.794 177.098 300.424 183.834 304.367C192.718 309.538 202.4 306.263 206.293 296.779C209.358 289.278 207.319 259.423 202.617 242.959C199.182 230.949 187.219 206.863 182.216 202.114C178.092 198.13 174.929 190.091 175.862 185.625C176.269 183.533 178.544 178.562 180.747 174.559C183.087 170.547 187.73 161.975 191.007 155.56C194.42 149.135 198.491 142.253 200.149 140.351C204.242 135.807 210.14 135.542 214.42 139.79C225.066 150.62 248.214 163.21 265.735 167.929C277.217 170.86 283.059 169.773 289.093 163.445C291.782 160.509 292.345 158.682 291.962 153.068C291.503 146.357 291.348 146.093 283.999 141.229C279.831 138.624 272.575 135.13 267.934 133.658C252.029 128.415 236.515 116.817 224.437 101.132C211.024 84.0243 205.841 80.6635 196.844 83.8921Z" fill="black"/>
<circle cx="246" cy="41" r="25" stroke="black" stroke-width="30"/>
</g>
</svg>
